name analog
datacolumns 19
datarows 66
range 0.279 0.3115
endheader
time	ground_force_vx	ground_force_vy	ground_force_vz	ground_force_px	ground_force_py	ground_force_pz	l_ground_force_vx	l_ground_force_vy	l_ground_force_vz	l_ground_force_px	l_ground_force_py	l_ground_force_pz	ground_torque_x	ground_torque_y	ground_torque_z	l_ground_torque_x	l_ground_torque_y	l_ground_torque_z
0.279	-0.0	-0.0	-0.0	0.1784234195947647	-16.31085777282715	-797.7157592773438	-0.0	-0.0	-0.0	-34.94864273071289	16.164443969726562	75.3396987915039	-0.0	-0.0	-0.0	-0.0	-0.0	-0.0
0.2795	-0.0	-0.0	-0.0	1.5463439226150513	-16.81582260131836	-800.1879272460938	-0.0	-0.0	-0.0	-34.88918685913086	15.954358100891112	75.45320129394531	-0.0	-0.0	-0.0	-0.0	-0.0	-0.0
0.28	-0.0	-0.0	-0.0	1.9032236337661743	-16.073644638061523	-801.0112915039062	-0.0	-0.0	-0.0	-34.82982635498047	16.194034576416016	76.74088287353516	-0.0	-0.0	-0.0	-0.0	-0.0	-0.0
0.2805	-0.0	-0.0	-0.0	2.557575464248657	-16.3105525970459	-801.8317260742188	-0.0	-0.0	-0.0	-34.948848724365234	16.434247970581055	76.15422058105469	-0.0	-0.0	-0.0	-0.0	-0.0	-0.0
0.281	-0.0	-0.0	-0.0	2.7340924739837646	-16.726675033569336	-801.9549560546875	-0.0	-0.0	-0.0	-34.889495849609375	16.373779296875	75.46284484863281	-0.0	-0.0	-0.0	-0.0	-0.0	-0.0
0.28150000000000003	-0.0	-0.0	-0.0	2.58760929107666	-16.63700294494629	-801.9512329101562	-0.0	-0.0	-0.0	-34.769256591796875	16.162656784057617	76.39268493652344	-0.0	-0.0	-0.0	-0.0	-0.0	-0.0
0.28200000000000003	-0.0	-0.0	-0.0	2.6763153076171875	-16.43114471435547	-797.8359375	-0.0	-0.0	-0.0	-34.88880157470703	16.374473571777344	74.86739349365234	-0.0	-0.0	-0.0	-0.0	-0.0	-0.0
0.28250000000000003	-0.0	-0.0	-0.0	3.06099534034729	-15.894447326660156	-794.5390014648438	-0.0	-0.0	-0.0	-35.18531036376953	16.165224075317383	75.69132995605469	-0.0	-0.0	-0.0	-0.0	-0.0	-0.0
0.28300000000000003	-0.0	-0.0	-0.0	3.8952536582946777	-14.855609893798828	-789.2384033203125	-0.0	-0.0	-0.0	-34.82953643798828	16.165292739868164	76.62163543701172	-0.0	-0.0	-0.0	-0.0	-0.0	-0.0
0.28350000000000003	-0.0	-0.0	-0.0	5.70854377746582	-13.60785961151123	-785.360595703125	-0.0	-0.0	-0.0	-34.91903305053711	16.01459503173828	74.7528076171875	-0.0	-0.0	-0.0	-0.0	-0.0	-0.0
0.28400000000000003	-0.0	-0.0	-0.0	6.749914646148682	-12.566346168518066	-781.7022094726562	-0.0	-0.0	-0.0	-35.040138244628906	16.316295623779297	76.62104034423828	-0.0	-0.0	-0.0	-0.0	-0.0	-0.0
0.28450000000000003	-0.0	-0.0	-0.0	8.206241607666016	-11.673833847045898	-781.582763671875	-0.0	-0.0	-0.0	-34.55984115600586	16.164066314697266	74.28300476074219	-0.0	-0.0	-0.0	-0.0	-0.0	-0.0
0.28500000000000003	-0.0	-0.0	-0.0	8.654658317565918	-10.784778594970703	-782.1643676757812	-0.0	-0.0	-0.0	-34.83121490478516	15.953582763671877	75.8056640625	-0.0	-0.0	-0.0	-0.0	-0.0	-0.0
0.28550000000000003	-0.0	-0.0	-0.0	8.623231887817383	-9.893474578857422	-784.8800048828125	-0.0	-0.0	-0.0	-34.828060150146484	16.046802520751953	75.69300842285156	-0.0	-0.0	-0.0	-0.0	-0.0	-0.0
0.28600000000000003	-0.0	-0.0	-0.0	8.29799747467041	-9.509608268737791	-787.7108764648438	-0.0	-0.0	-0.0	-34.887081146240234	16.016326904296875	74.9845199584961	-0.0	-0.0	-0.0	-0.0	-0.0	-0.0
0.28650000000000003	-0.0	-0.0	-0.0	8.710848808288574	-9.715213775634766	-790.8714599609375	-0.0	-0.0	-0.0	-34.980098724365234	16.072113037109375	75.5740966796875	-0.0	-0.0	-0.0	-0.0	-0.0	-0.0
0.28700000000000003	-0.0	-0.0	-0.0	8.091163635253906	-10.009572982788086	-795.4616088867188	-0.0	-0.0	-0.0	-35.012630462646484	16.043277740478516	76.73133850097656	-0.0	-0.0	-0.0	-0.0	-0.0	-0.0
0.28750000000000003	-0.0	-0.0	-0.0	8.055804252624512	-11.284098625183104	-799.83251953125	-0.0	-0.0	-0.0	-34.97826385498047	16.01255226135254	74.8644790649414	-0.0	-0.0	-0.0	-0.0	-0.0	-0.0
0.28800000000000003	-0.0	-0.0	-0.0	7.970085620880127	-12.06108856201172	-802.6578369140625	-0.0	-0.0	-0.0	-34.88880157470703	16.284503936767578	74.4186782836914	-0.0	-0.0	-0.0	-0.0	-0.0	-0.0
0.2885	-0.0	-0.0	-0.0	7.558365345001221	-12.09722900390625	-807.0084838867188	-0.0	-0.0	-0.0	-34.68157196044922	16.431427001953125	76.51642608642578	-0.0	-0.0	-0.0	-0.0	-0.0	-0.0
0.289	-0.0	-0.0	-0.0	7.226051330566406	-11.530206680297852	-808.9024658203125	-0.0	-0.0	-0.0	-34.858211517333984	16.104564666748047	74.87281799316406	-0.0	-0.0	-0.0	-0.0	-0.0	-0.0
0.2895	-0.0	-0.0	-0.0	6.897531986236572	-10.95880126953125	-807.6019897460938	-0.0	-0.0	-0.0	-34.679256439208984	16.225337982177734	75.93533325195312	-0.0	-0.0	-0.0	-0.0	-0.0	-0.0
0.29	-0.0	-0.0	-0.0	6.331712245941162	-10.041281700134276	-807.1279907226562	-0.0	-0.0	-0.0	-34.745628356933594	16.3461856842041	76.02635192871094	-0.0	-0.0	-0.0	-0.0	-0.0	-0.0
0.2905	-0.0	-0.0	-0.0	5.735340118408203	-9.44318389892578	-802.3224487304688	-0.0	-0.0	-0.0	-34.62305450439453	16.132793426513672	75.68524169921875	-0.0	-0.0	-0.0	-0.0	-0.0	-0.0
0.291	-0.0	-0.0	-0.0	5.113121509552002	-8.17431926727295	-796.1885375976562	-0.0	-0.0	-0.0	-34.71261215209961	15.775589942932127	76.26647186279297	-0.0	-0.0	-0.0	-0.0	-0.0	-0.0
0.2915	-0.0	-0.0	-0.0	3.7213287353515625	-7.614234924316406	-791.7183837890625	-0.0	-0.0	-0.0	-34.70420455932617	16.079336166381836	75.57540893554688	-0.0	-0.0	-0.0	-0.0	-0.0	-0.0
0.292	-0.0	-0.0	-0.0	2.94659423828125	-6.5038743019104	-784.8870849609375	-0.0	-0.0	-0.0	-35.0985221862793	16.194534301757812	75.926513671875	-0.0	-0.0	-0.0	-0.0	-0.0	-0.0
0.2925	-0.0	-0.0	-0.0	2.230262756347656	-6.328258514404297	-779.48974609375	-0.0	-0.0	-0.0	-34.85797119140625	15.927681922912598	75.44278717041016	-0.0	-0.0	-0.0	-0.0	-0.0	-0.0
0.293	-0.0	-0.0	-0.0	2.411529779434204	-6.648435592651367	-774.8880004882812	-0.0	-0.0	-0.0	-34.77162551879883	15.986719131469728	75.78092956542969	-0.0	-0.0	-0.0	-0.0	-0.0	-0.0
0.2935	-0.0	-0.0	-0.0	2.84585952758789	-6.626345157623291	-770.175537109375	-0.0	-0.0	-0.0	-34.62696075439453	16.13236427307129	75.55033874511719	-0.0	-0.0	-0.0	-0.0	-0.0	-0.0
0.294	-0.0	-0.0	-0.0	2.614820003509521	-6.654060363769531	-768.4955444335938	-0.0	-0.0	-0.0	-34.617088317871094	15.917908668518066	74.28050231933594	-0.0	-0.0	-0.0	-0.0	-0.0	-0.0
0.2945	-0.0	-0.0	-0.0	1.4336588382720947	-7.072059154510498	-768.7507934570312	-0.0	-0.0	-0.0	-34.83031463623047	16.076889038085938	76.02156829833984	-0.0	-0.0	-0.0	-0.0	-0.0	-0.0
0.295	-0.0	-0.0	-0.0	0.8094114065170288	-7.80942440032959	-772.500732421875	-0.0	-0.0	-0.0	-34.68600845336914	16.069793701171875	74.88844299316406	-0.0	-0.0	-0.0	-0.0	-0.0	-0.0
0.2955	-0.0	-0.0	-0.0	1.1872472763061523	-8.700620651245117	-778.953125	-0.0	-0.0	-0.0	-34.86141586303711	15.724477767944336	75.4404067993164	-0.0	-0.0	-0.0	-0.0	-0.0	-0.0
0.296	-0.0	-0.0	-0.0	1.537109375	-10.747020721435549	-786.8439331054688	-0.0	-0.0	-0.0	-34.94342803955078	15.928407669067385	74.53851318359375	-0.0	-0.0	-0.0	-0.0	-0.0	-0.0
0.2965	-0.0	-0.0	-0.0	1.6949996948242188	-13.153277397155762	-791.9659423828125	-0.0	-0.0	-0.0	-34.7721061706543	16.257110595703125	76.507568359375	-0.0	-0.0	-0.0	-0.0	-0.0	-0.0
0.297	-0.0	-0.0	-0.0	2.020887851715088	-14.555533409118652	-797.8190307617188	-0.0	-0.0	-0.0	-34.82256317138672	16.01061248779297	76.58312225341797	-0.0	-0.0	-0.0	-0.0	-0.0	-0.0
0.2975	-0.0	-0.0	-0.0	2.3081812858581543	-15.981544494628906	-803.4694213867188	-0.0	-0.0	-0.0	-35.094825744628906	16.253149032592773	76.507568359375	-0.0	-0.0	-0.0	-0.0	-0.0	-0.0
0.298	-0.0	-0.0	-0.0	1.4894264936447144	-15.896212577819824	-805.12744140625	-0.0	-0.0	-0.0	-34.861778259277344	15.924625396728516	76.01773071289062	-0.0	-0.0	-0.0	-0.0	-0.0	-0.0
0.2985	-0.0	-0.0	-0.0	1.2218546867370603	-14.179659843444824	-805.988037109375	-0.0	-0.0	-0.0	-35.09469223022461	16.041717529296875	75.59406280517578	-0.0	-0.0	-0.0	-0.0	-0.0	-0.0
0.299	-0.0	-0.0	-0.0	-0.170287013053894	-13.238617897033691	-803.928466796875	-0.0	-0.0	-0.0	-35.03644180297852	16.194534301757812	75.68295288085938	-0.0	-0.0	-0.0	-0.0	-0.0	-0.0
0.2995	-0.0	-0.0	-0.0	-1.6680495738983154	-10.873908996582031	-800.4124145507812	-0.0	-0.0	-0.0	-35.309268951416016	16.073068618774414	76.1566162109375	-0.0	-0.0	-0.0	-0.0	-0.0	-0.0
0.3	-0.0	-0.0	-0.0	-3.086906909942627	-8.89047908782959	-797.4633178710938	-0.0	-0.0	-0.0	-35.15257263183594	15.983061790466309	75.55965423583984	-0.0	-0.0	-0.0	-0.0	-0.0	-0.0
0.3005	-0.0	-0.0	-0.0	-4.10806131362915	-7.428991317749023	-793.9658813476562	-0.0	-0.0	-0.0	-34.83072662353516	16.194534301757812	75.34999084472656	-0.0	-0.0	-0.0	-0.0	-0.0	-0.0
0.301	-0.0	-0.0	-0.0	-3.283027648925781	-7.339898586273193	-789.9576416015625	-0.0	-0.0	-0.0	-35.004878997802734	15.897855758666992	76.36546325683594	-0.0	-0.0	-0.0	-0.0	-0.0	-0.0
0.3015	-0.0	-0.0	-0.0	-2.114384651184082	-7.838875770568848	-785.8800659179688	-0.0	-0.0	-0.0	-35.01463317871094	15.892987251281738	75.331298828125	-0.0	-0.0	-0.0	-0.0	-0.0	-0.0
0.302	-0.0	-0.0	-0.0	-1.9047211408615112	-8.17341136932373	-782.3306884765625	-0.0	-0.0	-0.0	-35.036231994628906	16.554412841796875	74.7331771850586	-0.0	-0.0	-0.0	-0.0	-0.0	-0.0
0.3025	-0.0	-0.0	-0.0	-1.2537508010864258	-7.959116458892822	-777.5781860351562	-0.0	-0.0	-0.0	-35.209999084472656	16.469589233398438	75.47478485107422	-0.0	-0.0	-0.0	-0.0	-0.0	-0.0
0.303	-0.0	-0.0	-0.0	-1.1283608675003052	-7.896345615386963	-772.3192138671875	-0.0	-0.0	-0.0	-34.915138244628906	16.369213104248047	75.55802154541016	-0.0	-0.0	-0.0	-0.0	-0.0	-0.0
0.3035	-0.0	-0.0	-0.0	-0.8970909118652344	-7.985383987426758	-771.2008666992188	-0.0	-0.0	-0.0	-34.80464553833008	16.20519256591797	77.41571807861328	-0.0	-0.0	-0.0	-0.0	-0.0	-0.0
0.304	-0.0	-0.0	-0.0	-1.070526123046875	-7.140620708465576	-769.8482055664062	-0.0	-0.0	-0.0	-34.678260803222656	16.263586044311523	77.5604248046875	-0.0	-0.0	-0.0	-0.0	-0.0	-0.0
0.3045	-0.0	-0.0	-0.0	-0.5719491243362427	-7.922191143035889	-773.464111328125	-0.0	-0.0	-0.0	-34.8626708984375	16.13640785217285	75.24964904785156	-0.0	-0.0	-0.0	-0.0	-0.0	-0.0
0.305	-0.0	-0.0	-0.0	0.3462460339069366	-8.545931816101074	-779.1766967773438	-0.0	-0.0	-0.0	-35.10502624511719	16.42692756652832	76.6539077758789	-0.0	-0.0	-0.0	-0.0	-0.0	-0.0
0.3055	-0.0	-0.0	-0.0	1.7580807209014893	-9.353285789489746	-783.47802734375	-0.0	-0.0	-0.0	-35.05626678466797	16.16838264465332	75.88520812988281	-0.0	-0.0	-0.0	-0.0	-0.0	-0.0
0.306	-0.0	-0.0	-0.0	3.490257978439331	-9.301111221313477	-787.9225463867188	-0.0	-0.0	-0.0	-34.735816955566406	16.110437393188477	73.84748077392578	-0.0	-0.0	-0.0	-0.0	-0.0	-0.0
0.3065	-0.0	-0.0	-0.0	5.200200080871582	-8.964974403381348	-792.7637939453125	-0.0	-0.0	-0.0	-34.90873336791992	15.962573051452637	76.0551528930664	-0.0	-0.0	-0.0	-0.0	-0.0	-0.0
0.307	-0.0	-0.0	-0.0	6.805920600891113	-8.363794326782227	-795.1106567382812	-0.0	-0.0	-0.0	-34.88276672363281	16.238693237304688	76.3826904296875	-0.0	-0.0	-0.0	-0.0	-0.0	-0.0
0.3075	-0.0	-0.0	-0.0	6.161360740661621	-7.653553962707519	-795.9190673828125	-0.0	-0.0	-0.0	-34.86923599243164	15.956677436828612	76.1566162109375	-0.0	-0.0	-0.0	-0.0	-0.0	-0.0
0.308	-0.0	-0.0	-0.0	5.09094762802124	-7.288888454437256	-796.2166748046875	-0.0	-0.0	-0.0	-35.08709716796875	16.22032356262207	75.57988739013672	-0.0	-0.0	-0.0	-0.0	-0.0	-0.0
0.3085	-0.0	-0.0	-0.0	3.108689785003662	-7.251278400421143	-795.2593994140625	-0.0	-0.0	-0.0	-35.067718505859375	16.303869247436523	75.17835998535156	-0.0	-0.0	-0.0	-0.0	-0.0	-0.0
0.309	-0.0	-0.0	-0.0	0.9935858249664308	-6.8056640625	-794.9307861328125	-0.0	-0.0	-0.0	-34.780277252197266	16.059724807739258	75.55482482910156	-0.0	-0.0	-0.0	-0.0	-0.0	-0.0
0.3095	-0.0	-0.0	-0.0	-0.471623957157135	-6.213579654693604	-792.4592895507812	-0.0	-0.0	-0.0	-35.12517166137695	16.040184020996094	75.8056640625	-0.0	-0.0	-0.0	-0.0	-0.0	-0.0
0.31	-0.0	-0.0	-0.0	-0.2802740335464477	-6.009867668151856	-791.2240600585938	-0.0	-0.0	-0.0	-34.5376091003418	16.194534301757812	76.507568359375	-0.0	-0.0	-0.0	-0.0	-0.0	-0.0
0.3105	-0.0	-0.0	-0.0	-0.7455657124519348	-5.494231700897217	-787.5159912109375	-0.0	-0.0	-0.0	-34.40944290161133	16.21999740600586	74.79915618896484	-0.0	-0.0	-0.0	-0.0	-0.0	-0.0
0.311	-0.0	-0.0	-0.0	-0.8921051025390625	-4.813041687011719	-785.1190185546875	-0.0	-0.0	-0.0	-35.0745849609375	15.917720794677734	76.73255920410156	-0.0	-0.0	-0.0	-0.0	-0.0	-0.0
0.3115	-0.0	-0.0	-0.0	-0.9878957867622375	-3.482659816741944	-781.2600708007812	-0.0	-0.0	-0.0	-34.806243896484375	15.917688369750977	75.25682830810547	-0.0	-0.0	-0.0	-0.0	-0.0	-0.0
